<?xml version="1.0" standalone="no"?>
<!DOCTYPE svg PUBLIC "-//W3C//DTD SVG 20010904//EN"
 "http://www.w3.org/TR/2001/REC-SVG-20010904/DTD/svg10.dtd">
<svg version="1.0" xmlns="http://www.w3.org/2000/svg"
 width="590.000000pt" height="590.000000pt" viewBox="0 0 590.000000 590.000000"
 preserveAspectRatio="xMidYMid meet">
<metadata>
Created by potrace 1.11, written by Peter Selinger 2001-2013
</metadata>
<g transform="translate(0.000000,590.000000) scale(0.100000,-0.100000)"
fill="#000000" stroke="none">
<path d="M2695 5444 c-182 -26 -321 -64 -475 -130 -72 -31 -217 -108 -262
-141 -26 -18 -50 -33 -53 -33 -3 0 -13 -6 -22 -14 -10 -8 -52 -41 -93 -74
-218 -174 -413 -432 -525 -697 -39 -92 -90 -251 -101 -315 -2 -14 -6 -34 -9
-46 -30 -132 -41 -445 -20 -569 23 -140 41 -219 71 -313 18 -59 34 -110 34
-114 0 -4 -18 -13 -40 -19 -31 -9 -43 -10 -52 -1 -7 7 -32 12 -56 12 -36 0
-49 -5 -73 -31 -16 -17 -29 -36 -29 -43 0 -6 -35 -22 -79 -36 l-79 -24 -25
-76 c-14 -41 -72 -208 -128 -370 -55 -162 -114 -335 -130 -385 -17 -49 -34
-99 -39 -110 -4 -11 -25 -69 -45 -130 -20 -60 -82 -240 -137 -400 -161 -470
-225 -656 -248 -725 -12 -36 -25 -74 -30 -85 -18 -43 -42 -127 -37 -131 3 -3
32 1 64 9 64 16 108 23 196 32 31 3 81 7 110 10 84 8 155 13 262 20 55 3 123
8 150 10 292 24 1283 25 1485 0 14 -1 75 -6 135 -10 61 -4 117 -8 125 -10 8
-2 49 -6 90 -10 96 -8 139 -15 205 -30 119 -28 117 -27 179 -11 64 17 160 32
268 41 35 4 79 8 98 10 19 2 76 7 125 10 50 4 106 9 125 10 260 24 1172 25
1480 1 25 -2 99 -7 165 -11 66 -3 131 -8 145 -10 14 -2 61 -6 105 -10 123 -10
162 -15 264 -36 52 -10 96 -17 98 -16 4 4 -16 53 -57 142 -15 33 -58 130 -95
215 -37 85 -76 174 -86 197 -10 23 -62 140 -115 260 -53 120 -104 236 -114
258 -10 22 -67 153 -128 290 -60 138 -121 275 -135 305 -14 30 -47 107 -75
170 -27 63 -60 138 -72 165 -12 28 -32 73 -45 100 -12 28 -48 109 -79 180
l-57 131 -114 38 c-63 20 -115 38 -115 39 0 1 15 41 34 90 19 48 33 87 31 87
-2 0 3 19 11 42 20 57 53 221 61 310 10 93 9 313 -1 398 -93 783 -697 1428
-1471 1570 -27 5 -66 12 -85 15 -71 13 -395 12 -485 -1z m430 -630 c405 -66
754 -347 908 -733 36 -89 73 -245 79 -331 l3 -45 -450 -2 c-248 -1 -456 -2
-462 -2 -9 -1 -13 -23 -13 -76 l0 -75 460 0 460 0 -1 -42 c-1 -33 -3 -37 -8
-18 -6 24 -9 25 -81 24 -41 -1 -80 -2 -86 -3 -6 0 -15 -25 -19 -53 -5 -29 -9
-55 -10 -58 -1 -3 -9 -30 -18 -60 -10 -30 -27 -78 -38 -106 l-22 -51 -43 13
-42 13 -455 -176 -455 -175 -234 87 c-128 47 -242 90 -253 95 -11 5 -71 27
-134 50 -161 58 -167 62 -196 126 -32 69 -74 212 -77 262 l-3 37 -85 0 c-69 0
-85 3 -85 15 0 13 62 15 498 15 473 0 499 -1 512 -18 16 -22 11 -58 -10 -73
-11 -8 -99 -12 -283 -12 -147 0 -275 -1 -285 -1 -16 -1 -18 -10 -15 -73 l3
-73 298 -2 c334 -2 352 0 408 64 38 43 51 75 54 132 4 61 -11 99 -59 148 -67
68 -72 69 -638 67 l-497 -1 3 21 c3 19 10 21 72 23 38 0 77 2 86 2 12 1 20 17
28 59 103 527 580 881 1105 820 147 -18 308 -75 429 -155 131 -86 262 -227
335 -363 44 -83 96 -229 106 -303 4 -26 11 -50 16 -53 8 -5 65 -7 138 -5 l34
1 -7 53 c-8 62 -42 200 -59 242 -138 337 -378 574 -708 698 -201 76 -455 91
-664 41 -33 -8 -67 -16 -75 -18 -92 -23 -248 -101 -355 -178 -38 -28 -62 -42
-52 -30 10 11 50 41 87 67 149 99 337 173 490 191 30 3 57 8 58 9 11 10 230 1
307 -11z m-965 -277 c0 -1 -30 -32 -67 -67 l-68 -65 65 68 c60 62 70 72 70 64z
m-130 -140 c0 -2 -10 -12 -22 -23 l-23 -19 19 23 c18 21 26 27 26 19z"/>
<path d="M2262 3942 c-55 -18 -102 -71 -118 -133 -7 -28 -11 -55 -9 -59 3 -5
37 -8 76 -7 66 1 71 2 84 28 8 15 26 29 39 33 14 3 142 6 285 5 142 -1 264 1
270 5 12 8 16 135 4 137 -5 1 -140 2 -300 3 -214 1 -303 -2 -331 -12z"/>
<path d="M3003 3947 c-9 -14 -8 -631 1 -645 6 -10 656 -15 695 -5 13 3 16 15
15 61 -1 31 -2 63 -3 70 -1 9 -64 12 -280 12 l-279 0 0 180 c1 99 3 181 7 181
3 1 125 2 271 3 146 1 270 4 276 8 13 9 16 109 4 129 -8 12 -66 14 -355 15
-239 1 -347 -2 -352 -9z"/>
</g>
</svg>
